<svg width="48" height="48" viewBox="0 0 48 48" fill="none" xmlns="http://www.w3.org/2000/svg">
<g id="Icons / Author">
<rect width="48" height="48" fill="white"/>
<path id="Vector" d="M16.05 40C15.25 40 14.55 39.7 13.95 39.1C13.35 38.5 13.05 37.8 13.05 37V32H19.25V25.65C17.9833 25.75 16.7167 25.575 15.45 25.125C14.1833 24.675 13.05 23.9667 12.05 23V20.1H9.55L3 13.55C4.2 12.4167 5.63333 11.4917 7.3 10.775C8.96667 10.0583 10.6667 9.7 12.4 9.7C13.4 9.7 14.5417 9.85833 15.825 10.175C17.1083 10.4917 18.25 11 19.25 11.7V8H42V34.75C42 36.2167 41.4917 37.4583 40.475 38.475C39.4583 39.4917 38.2167 40 36.75 40H16.05ZM22.25 32H34.5V34.75C34.5 35.4167 34.7083 35.9583 35.125 36.375C35.5417 36.7917 36.0833 37 36.75 37C37.4167 37 37.9583 36.7917 38.375 36.375C38.7917 35.9583 39 35.4167 39 34.75V11H22.25V13.85L34.3 25.9V28.05H32.15L25.85 21.75L25 22.75C24.5667 23.25 24.1333 23.6333 23.7 23.9C23.2667 24.1667 22.7833 24.4167 22.25 24.65V32ZM10.9 17.1H15.05V21.55C15.6167 21.9167 16.175 22.1917 16.725 22.375C17.275 22.5583 17.8333 22.65 18.4 22.65C19.2333 22.65 20.0833 22.425 20.95 21.975C21.8167 21.525 22.45 21.0667 22.85 20.6L23.7 19.6L20.25 16.15C19.1833 15.0833 17.9833 14.2417 16.65 13.625C15.3167 13.0083 13.9 12.7 12.4 12.7C11.5 12.7 10.6833 12.8083 9.95 13.025C9.21667 13.2417 8.46667 13.5333 7.7 13.9L10.9 17.1ZM31.5 35H16.05V37H32.2C32 36.8 31.8333 36.525 31.7 36.175C31.5667 35.825 31.5 35.4333 31.5 35Z" fill="#029992"/>
</g>
</svg>
