<svg width="50" height="47" viewBox="0 0 50 47" fill="none" xmlns="http://www.w3.org/2000/svg">
<rect width="50" height="47" fill="white"/>
<path opacity="0.7" d="M2.93934 21.9393C2.35355 22.5251 2.35355 23.4749 2.93934 24.0607L12.4853 33.6066C13.0711 34.1924 14.0208 34.1924 14.6066 33.6066C15.1924 33.0208 15.1924 32.0711 14.6066 31.4853L6.12132 23L14.6066 14.5147C15.1924 13.9289 15.1924 12.9792 14.6066 12.3934C14.0208 11.8076 13.0711 11.8076 12.4853 12.3934L2.93934 21.9393ZM44 24.5C44.8284 24.5 45.5 23.8284 45.5 23C45.5 22.1716 44.8284 21.5 44 21.5V24.5ZM4 24.5H44V21.5H4V24.5Z" fill="#4B4B4B"/>
</svg>
