<svg width="24" height="24" viewBox="0 0 24 24" fill="none" xmlns="http://www.w3.org/2000/svg">
<path d="M8.42857 18V16H7V14.6667H8.42857V13.3333H7V12H8.42857V6H13.0714C14.1667 6 15.0952 6.35556 15.8571 7.06667C16.619 7.77778 17 8.64444 17 9.66667C17 10.6889 16.619 11.5556 15.8571 12.2667C15.0952 12.9778 14.1667 13.3333 13.0714 13.3333H9.85714V14.6667H12.7143V16H9.85714V18H8.42857ZM9.85714 12H13.0714C13.7619 12 14.3512 11.7722 14.8393 11.3167C15.3274 10.8611 15.5714 10.3111 15.5714 9.66667C15.5714 9.02222 15.3274 8.47222 14.8393 8.01667C14.3512 7.56111 13.7619 7.33333 13.0714 7.33333H9.85714V12Z" fill="white"/>
<rect x="1" y="1" width="22" height="22" rx="11" stroke="white" stroke-width="2"/>
</svg>
