<svg width="25" height="24" viewBox="0 0 25 24" fill="none" xmlns="http://www.w3.org/2000/svg">
<rect width="24" height="24" transform="translate(0.277344)" fill="white"/>
<path d="M5.27734 22C4.72734 22 4.25651 21.8042 3.86484 21.4125C3.47318 21.0208 3.27734 20.55 3.27734 20V6C3.27734 5.45 3.47318 4.97917 3.86484 4.5875C4.25651 4.19583 4.72734 4 5.27734 4H6.27734V2H8.27734V4H16.2773V2H18.2773V4H19.2773C19.8273 4 20.2982 4.19583 20.6898 4.5875C21.0815 4.97917 21.2773 5.45 21.2773 6V20C21.2773 20.55 21.0815 21.0208 20.6898 21.4125C20.2982 21.8042 19.8273 22 19.2773 22H5.27734ZM5.27734 20H19.2773V10H5.27734V20ZM5.27734 8H19.2773V6H5.27734V8ZM12.2773 14C11.994 14 11.7565 13.9042 11.5648 13.7125C11.3732 13.5208 11.2773 13.2833 11.2773 13C11.2773 12.7167 11.3732 12.4792 11.5648 12.2875C11.7565 12.0958 11.994 12 12.2773 12C12.5607 12 12.7982 12.0958 12.9898 12.2875C13.1815 12.4792 13.2773 12.7167 13.2773 13C13.2773 13.2833 13.1815 13.5208 12.9898 13.7125C12.7982 13.9042 12.5607 14 12.2773 14ZM8.27734 14C7.99401 14 7.75651 13.9042 7.56484 13.7125C7.37318 13.5208 7.27734 13.2833 7.27734 13C7.27734 12.7167 7.37318 12.4792 7.56484 12.2875C7.75651 12.0958 7.99401 12 8.27734 12C8.56068 12 8.79818 12.0958 8.98984 12.2875C9.18151 12.4792 9.27734 12.7167 9.27734 13C9.27734 13.2833 9.18151 13.5208 8.98984 13.7125C8.79818 13.9042 8.56068 14 8.27734 14ZM16.2773 14C15.994 14 15.7565 13.9042 15.5648 13.7125C15.3732 13.5208 15.2773 13.2833 15.2773 13C15.2773 12.7167 15.3732 12.4792 15.5648 12.2875C15.7565 12.0958 15.994 12 16.2773 12C16.5607 12 16.7982 12.0958 16.9898 12.2875C17.1815 12.4792 17.2773 12.7167 17.2773 13C17.2773 13.2833 17.1815 13.5208 16.9898 13.7125C16.7982 13.9042 16.5607 14 16.2773 14ZM12.2773 18C11.994 18 11.7565 17.9042 11.5648 17.7125C11.3732 17.5208 11.2773 17.2833 11.2773 17C11.2773 16.7167 11.3732 16.4792 11.5648 16.2875C11.7565 16.0958 11.994 16 12.2773 16C12.5607 16 12.7982 16.0958 12.9898 16.2875C13.1815 16.4792 13.2773 16.7167 13.2773 17C13.2773 17.2833 13.1815 17.5208 12.9898 17.7125C12.7982 17.9042 12.5607 18 12.2773 18ZM8.27734 18C7.99401 18 7.75651 17.9042 7.56484 17.7125C7.37318 17.5208 7.27734 17.2833 7.27734 17C7.27734 16.7167 7.37318 16.4792 7.56484 16.2875C7.75651 16.0958 7.99401 16 8.27734 16C8.56068 16 8.79818 16.0958 8.98984 16.2875C9.18151 16.4792 9.27734 16.7167 9.27734 17C9.27734 17.2833 9.18151 17.5208 8.98984 17.7125C8.79818 17.9042 8.56068 18 8.27734 18ZM16.2773 18C15.994 18 15.7565 17.9042 15.5648 17.7125C15.3732 17.5208 15.2773 17.2833 15.2773 17C15.2773 16.7167 15.3732 16.4792 15.5648 16.2875C15.7565 16.0958 15.994 16 16.2773 16C16.5607 16 16.7982 16.0958 16.9898 16.2875C17.1815 16.4792 17.2773 16.7167 17.2773 17C17.2773 17.2833 17.1815 17.5208 16.9898 17.7125C16.7982 17.9042 16.5607 18 16.2773 18Z" fill="#1B1B1B"/>
</svg>
