<svg width="23" height="22" viewBox="0 0 23 22" fill="none" xmlns="http://www.w3.org/2000/svg">
<g id="camera-photo">
<g id="shape">
<path fill-rule="evenodd" clip-rule="evenodd" d="M8.32464 3.01849C8.49655 2.84658 8.7297 2.75 8.97282 2.75H14.4728C14.7159 2.75 14.9491 2.84658 15.121 3.01849L16.6858 4.58333H19.9728C20.4791 4.58333 20.8895 4.99374 20.8895 5.5V17.4167C20.8895 17.9229 20.4791 18.3333 19.9728 18.3333H3.47282C2.96656 18.3333 2.55615 17.9229 2.55615 17.4167V5.5C2.55615 4.99374 2.96656 4.58333 3.47282 4.58333H4.38949V3.66667H6.22282V4.58333H6.75979L8.32464 3.01849ZM9.35251 4.58333L7.78767 6.14818C7.61576 6.32009 7.3826 6.41667 7.13949 6.41667H4.38949V16.5H19.0562V6.41667H16.3062C16.063 6.41667 15.8299 6.32009 15.658 6.14818L14.0931 4.58333H9.35251Z" fill="#029992"/>
<path fill-rule="evenodd" clip-rule="evenodd" d="M11.7228 13.2917C12.9885 13.2917 14.0145 12.2657 14.0145 11C14.0145 9.73435 12.9885 8.70833 11.7228 8.70833C10.4572 8.70833 9.43115 9.73435 9.43115 11C9.43115 12.2657 10.4572 13.2917 11.7228 13.2917ZM11.7228 15.125C14.001 15.125 15.8478 13.2782 15.8478 11C15.8478 8.72183 14.001 6.875 11.7228 6.875C9.44464 6.875 7.59782 8.72183 7.59782 11C7.59782 13.2782 9.44464 15.125 11.7228 15.125Z" fill="#029992"/>
</g>
</g>
</svg>
