<svg width="24" height="24" viewBox="0 0 24 24" fill="none" xmlns="http://www.w3.org/2000/svg">
<rect width="24" height="24" fill="white"/>
<path d="M12 20.9754L10.975 20.0504C9.2122 18.4317 7.75483 17.0354 6.6029 15.8614C5.45097 14.6874 4.53333 13.6379 3.85 12.7129C3.16667 11.7879 2.6875 10.9504 2.4125 10.2004C2.1375 9.45039 2 8.69206 2 7.92539C2 6.42281 2.50417 5.168 3.5125 4.16096C4.52083 3.15391 5.76667 2.65039 7.25 2.65039C8.2 2.65039 9.07917 2.87539 9.8875 3.32539C10.6958 3.77539 11.4 4.42539 12 5.27539C12.7 4.37539 13.4417 3.71289 14.225 3.28789C15.0083 2.86289 15.85 2.65039 16.75 2.65039C18.2333 2.65039 19.4792 3.15391 20.4875 4.16096C21.4958 5.168 22 6.42281 22 7.92539C22 8.69206 21.8625 9.45039 21.5875 10.2004C21.3125 10.9504 20.8333 11.7879 20.15 12.7129C19.4667 13.6379 18.549 14.6874 17.3971 15.8614C16.2452 17.0354 14.7878 18.4317 13.025 20.0504L12 20.9754ZM12 19.0004C13.6873 17.4505 15.0757 16.1213 16.1655 15.0129C17.2551 13.9046 18.1208 12.9337 18.7625 12.1004C19.4042 11.2671 19.8542 10.5243 20.1125 9.87202C20.3708 9.21975 20.5 8.57208 20.5 7.92902C20.5 6.8266 20.15 5.92122 19.45 5.21289C18.75 4.50456 17.8519 4.15039 16.7556 4.15039C15.8969 4.15039 15.1021 4.41289 14.3712 4.93789C13.6404 5.46289 13.05 6.20039 12.6 7.15039H11.375C10.9417 6.21706 10.3596 5.48372 9.62875 4.95039C8.8979 4.41706 8.10311 4.15039 7.24437 4.15039C6.14813 4.15039 5.25 4.50456 4.55 5.21289C3.85 5.92122 3.5 6.82802 3.5 7.93329C3.5 8.57802 3.62917 9.22956 3.8875 9.88789C4.14583 10.5462 4.59583 11.2962 5.2375 12.1379C5.87917 12.9796 6.75 13.9504 7.85 15.0504C8.95 16.1504 10.3333 17.4671 12 19.0004Z" fill="#029992"/>
</svg>
