<svg width="21" height="21" viewBox="0 0 21 21" fill="none" xmlns="http://www.w3.org/2000/svg">
<g id="system-uicons:link">
<path id="Vector" d="M9.49981 7.5003L10.4998 6.5003C11.0302 5.96987 11.7497 5.67188 12.4998 5.67188C13.25 5.67188 13.9694 5.96987 14.4998 6.5003C15.0302 7.03074 15.3282 7.75016 15.3282 8.5003C15.3282 9.25045 15.0302 9.96987 14.4998 10.5003L13.4998 11.5003M10.4998 14.5003L9.49981 15.5003C8.96938 16.0307 8.24996 16.3287 7.49981 16.3287C6.74967 16.3287 6.03025 16.0307 5.49981 15.5003C4.96938 14.9699 4.67139 14.2504 4.67139 13.5003C4.67139 12.7502 4.96938 12.0307 5.49981 11.5003L6.49981 10.5003M7.49981 13.5003L12.4998 8.5003" stroke="black" stroke-linecap="round" stroke-linejoin="round"/>
</g>
</svg>
