<svg width="24" height="24" viewBox="0 0 24 24" fill="none" xmlns="http://www.w3.org/2000/svg">
<rect width="24" height="24" fill="white"/>
<circle cx="16.6592" cy="5.46021" r="2.51953" fill="#EF4F4F"/>
<path fill-rule="evenodd" clip-rule="evenodd" d="M4 17.5V19H20V17.5H18V9.9C18 9.44268 17.956 9.00092 17.868 8.57473C17.4934 8.72007 17.0861 8.7998 16.6602 8.7998C16.5634 8.7998 16.4676 8.79569 16.3729 8.78762C16.4576 9.14026 16.5 9.51105 16.5 9.9V17.5H7.5V9.9C7.5 8.65 7.9375 7.5875 8.8125 6.7125C9.6875 5.8375 10.75 5.4 12 5.4C12.467 5.4 12.9079 5.46107 13.3225 5.58321C13.3211 5.54231 13.3203 5.50123 13.3203 5.45996C13.3203 4.96643 13.4274 4.49789 13.6195 4.07632C13.5799 4.06718 13.5401 4.05841 13.5 4.05V3.5C13.5 3.08333 13.3542 2.72917 13.0625 2.4375C12.7708 2.14583 12.4167 2 12 2C11.5833 2 11.2292 2.14583 10.9375 2.4375C10.6458 2.72917 10.5 3.08333 10.5 3.5V4.05C9.15 4.33333 8.0625 5.02917 7.2375 6.1375C6.4125 7.24583 6 8.5 6 9.9V17.5H4ZM10.5875 21.4125C10.9792 21.8042 11.45 22 12 22C12.55 22 13.0208 21.8042 13.4125 21.4125C13.8042 21.0208 14 20.55 14 20H10C10 20.55 10.1958 21.0208 10.5875 21.4125Z" fill="#029992"/>
</svg>
