<svg width="25" height="24" viewBox="0 0 25 24" fill="none" xmlns="http://www.w3.org/2000/svg">
<path d="M5.72266 19H7.12266L15.7477 10.375L14.3477 8.975L5.72266 17.6V19ZM20.0227 8.925L15.7727 4.725L17.1727 3.325C17.556 2.94167 18.0268 2.75 18.5852 2.75C19.1435 2.75 19.6143 2.94167 19.9977 3.325L21.3977 4.725C21.781 5.10833 21.981 5.57083 21.9977 6.1125C22.0143 6.65417 21.831 7.11667 21.4477 7.5L20.0227 8.925ZM18.5727 10.4L7.97266 21H3.72266V16.75L14.3227 6.15L18.5727 10.4ZM15.0477 9.675L14.3477 8.975L15.7477 10.375L15.0477 9.675Z" fill="#029992"/>
</svg>
