<svg width="40" height="40" viewBox="0 0 40 40" fill="none" xmlns="http://www.w3.org/2000/svg">
<rect width="40" height="40" fill="white"/>
<path d="M9.24968 29.375C10.9997 28.1528 12.7358 27.2153 14.458 26.5625C16.1802 25.9097 18.0275 25.5833 19.9997 25.5833C21.9719 25.5833 23.8261 25.9097 25.5622 26.5625C27.2983 27.2153 29.0413 28.1528 30.7913 29.375C32.0136 27.875 32.8816 26.3611 33.3955 24.8333C33.9094 23.3055 34.1663 21.6944 34.1663 20C34.1663 15.9722 32.8122 12.6041 30.1038 9.89581C27.3955 7.18748 24.0275 5.83331 19.9997 5.83331C15.9719 5.83331 12.6038 7.18748 9.89551 9.89581C7.18718 12.6041 5.83301 15.9722 5.83301 20C5.83301 21.6944 6.0969 23.3055 6.62467 24.8333C7.15245 26.3611 8.02745 27.875 9.24968 29.375ZM19.9919 21.25C18.386 21.25 17.0344 20.6988 15.9372 19.5964C14.84 18.494 14.2913 17.1398 14.2913 15.5339C14.2913 13.928 14.8425 12.5764 15.9449 11.4791C17.0473 10.3819 18.4015 9.83331 20.0074 9.83331C21.6134 9.83331 22.965 10.3845 24.0622 11.4869C25.1594 12.5893 25.708 13.9435 25.708 15.5494C25.708 17.1553 25.1568 18.5069 24.0544 19.6041C22.952 20.7014 21.5979 21.25 19.9919 21.25ZM20.0192 36.6666C17.7284 36.6666 15.5691 36.2291 13.5413 35.3541C11.5136 34.4792 9.74273 33.2847 8.22884 31.7708C6.71495 30.2569 5.52051 28.4893 4.64551 26.4681C3.77051 24.4468 3.33301 22.2871 3.33301 19.9889C3.33301 17.6907 3.77051 15.5347 4.64551 13.5208C5.52051 11.5069 6.71495 9.74304 8.22884 8.22915C9.74273 6.71526 11.5103 5.52081 13.5316 4.64581C15.5529 3.77081 17.7126 3.33331 20.0108 3.33331C22.3089 3.33331 24.465 3.77081 26.4788 4.64581C28.4927 5.52081 30.2566 6.71526 31.7705 8.22915C33.2844 9.74304 34.4788 11.5074 35.3538 13.5221C36.2288 15.5369 36.6663 17.6897 36.6663 19.9805C36.6663 22.2713 36.2288 24.4305 35.3538 26.4583C34.4788 28.4861 33.2844 30.2569 31.7705 31.7708C30.2566 33.2847 28.4923 34.4792 26.4775 35.3541C24.4627 36.2291 22.31 36.6666 20.0192 36.6666ZM19.9997 34.1667C21.5275 34.1667 23.0205 33.9444 24.4788 33.5C25.9372 33.0555 27.3747 32.2778 28.7913 31.1666C27.3747 30.1666 25.9302 29.4028 24.458 28.875C22.9858 28.3472 21.4997 28.0833 19.9997 28.0833C18.4997 28.0833 17.0136 28.3472 15.5413 28.875C14.0691 29.4028 12.6247 30.1666 11.208 31.1666C12.6247 32.2778 14.0622 33.0555 15.5205 33.5C16.9788 33.9444 18.4719 34.1667 19.9997 34.1667ZM19.9997 18.75C20.9441 18.75 21.715 18.4514 22.3122 17.8541C22.9094 17.2569 23.208 16.4861 23.208 15.5416C23.208 14.5972 22.9094 13.8264 22.3122 13.2291C21.715 12.6319 20.9441 12.3333 19.9997 12.3333C19.0552 12.3333 18.2844 12.6319 17.6872 13.2291C17.09 13.8264 16.7913 14.5972 16.7913 15.5416C16.7913 16.4861 17.09 17.2569 17.6872 17.8541C18.2844 18.4514 19.0552 18.75 19.9997 18.75Z" fill="#029992"/>
</svg>
