<svg width="24" height="24" viewBox="0 0 24 24" fill="none" xmlns="http://www.w3.org/2000/svg">
<rect width="24" height="24" fill="white"/>
<path d="M12 20C9.78333 20 7.89583 19.2208 6.3375 17.6625C4.77917 16.1042 4 14.2167 4 12C4 9.78333 4.77917 7.89583 6.3375 6.3375C7.89583 4.77917 9.78333 4 12 4C13.4167 4 14.6583 4.2875 15.725 4.8625C16.7917 5.4375 17.7167 6.225 18.5 7.225V4H20V10.35H13.65V8.85H17.85C17.2167 7.85 16.4083 7.04167 15.425 6.425C14.4417 5.80833 13.3 5.5 12 5.5C10.1833 5.5 8.64583 6.12917 7.3875 7.3875C6.12917 8.64583 5.5 10.1833 5.5 12C5.5 13.8167 6.12917 15.3542 7.3875 16.6125C8.64583 17.8708 10.1833 18.5 12 18.5C13.3833 18.5 14.65 18.1042 15.8 17.3125C16.95 16.5208 17.75 15.475 18.2 14.175H19.75C19.2667 15.925 18.3083 17.3333 16.875 18.4C15.4417 19.4667 13.8167 20 12 20Z" fill="#1B1B1B"/>
</svg>
