<svg width="17" height="17" viewBox="0 0 17 17" fill="none" xmlns="http://www.w3.org/2000/svg">
<path d="M13.7667 14.9667L9.38333 10.5833C9.05 10.8722 8.66134 11.0972 8.21735 11.2583C7.77336 11.4195 7.30091 11.5 6.8 11.5C5.5982 11.5 4.58108 11.0833 3.74865 10.25C2.91622 9.41668 2.5 8.41112 2.5 7.23334C2.5 6.05556 2.91667 5.05001 3.75 4.21667C4.58333 3.38334 5.59167 2.96667 6.775 2.96667C7.95833 2.96667 8.96389 3.38334 9.79167 4.21667C10.6194 5.05001 11.0333 6.0564 11.0333 7.23584C11.0333 7.71195 10.9556 8.17223 10.8 8.61667C10.6444 9.06112 10.4111 9.47779 10.1 9.86668L14.5 14.2333L13.7667 14.9667ZM6.78333 10.5C7.68611 10.5 8.45347 10.1806 9.08542 9.54168C9.71736 8.90279 10.0333 8.13334 10.0333 7.23334C10.0333 6.33334 9.71736 5.5639 9.08542 4.92501C8.45347 4.28612 7.68611 3.96667 6.78333 3.96667C5.8713 3.96667 5.09607 4.28612 4.45763 4.92501C3.81921 5.5639 3.5 6.33334 3.5 7.23334C3.5 8.13334 3.81921 8.90279 4.45763 9.54168C5.09607 10.1806 5.8713 10.5 6.78333 10.5Z" fill="#1B1B1B"/>
</svg>
