<svg width="24" height="24" viewBox="0 0 24 24" fill="none" xmlns="http://www.w3.org/2000/svg">
<g clip-path="url(#clip0_447_2724)">
<rect width="24" height="24" fill="white"/>
<path d="M11.9996 23.7848C18.5081 23.7848 23.7843 18.5086 23.7843 12.0001C23.7843 5.49155 18.5081 0.215332 11.9996 0.215332C5.49106 0.215332 0.214844 5.49155 0.214844 12.0001C0.214844 18.5086 5.49106 23.7848 11.9996 23.7848Z" fill="#FF0000"/>
<path d="M14.6944 4.93896H12.5546C10.4521 4.93896 8.66906 6.53937 8.66906 9.64648C8.66906 11.5105 9.53249 12.8848 11.0714 13.5627L8.19974 18.7597C8.10576 18.9294 8.19974 19.0609 8.34984 19.0609H9.68264C9.79514 19.0609 9.8706 19.0234 9.9081 18.9294L12.5171 13.8264H13.4556V18.9294C13.4556 18.9855 13.5117 19.0609 13.5868 19.0609H14.7508C14.8633 19.0609 14.9009 19.0045 14.9009 18.9107V5.12726C14.9009 4.99545 14.8258 4.93896 14.6944 4.93896ZM13.4556 12.6215H12.6672C11.4284 12.6215 10.2272 11.7177 10.2272 9.45823C10.2272 7.10417 11.3534 6.14393 12.4982 6.14393H13.4556V12.6215H13.4556Z" fill="white"/>
</g>
<defs>
<clipPath id="clip0_447_2724">
<rect width="24" height="24" fill="white"/>
</clipPath>
</defs>
</svg>
