<svg width="829" height="553" viewBox="0 0 829 553" fill="none" xmlns="http://www.w3.org/2000/svg">
<path d="M778.359 211.914C769.649 180.528 711.582 214.666 711.582 214.666L726.777 187.087C728.582 184.353 730.203 181.455 731.59 178.35C739.221 161.275 739.121 143.009 731.55 127.102C729.469 117.444 723.165 103.641 705.775 88.5143C672.871 59.8932 562.546 40.3159 530.609 44.6625C498.673 49.0102 559.642 62.4536 559.642 62.4536L554.81 62.4116C461.792 52.5439 368.203 51.2742 275.345 53.1975C252.06 53.6797 228.704 54.444 205.906 58.3802C199.345 59.5128 192.291 61.2426 188.386 66.537C171.051 90.0572 241.96 92.3555 253.083 91.902C204.379 98.2361 150.262 100.178 104.966 119.012C98.6462 121.64 92.3856 124.755 87.6238 129.617C82.862 134.479 79.7594 141.377 80.8327 148.309C83.9486 168.435 111.66 174.401 127.374 178.87C127.374 178.87 37.046 238.969 47.6914 269.476C52.0918 282.086 58.6508 295.362 70.8062 308.43C63.8779 317.133 57.7776 326.266 53.0623 335.921C50.1773 341.827 46.3982 349.919 49.6269 356.717C66.0787 391.363 315.584 510.292 515.519 476.348C568.632 467.33 621.529 452.419 668.09 426.048C714.424 399.803 761.641 356.454 773.313 301.791C773.698 299.989 773.979 298.243 774.172 296.544C781.415 271.353 785.645 238.172 778.359 211.914Z" fill="#92E3A9"/>
<path opacity="0.8" d="M778.359 211.914C769.649 180.528 711.582 214.666 711.582 214.666L726.777 187.087C728.582 184.353 730.203 181.455 731.59 178.35C739.221 161.275 739.121 143.009 731.55 127.102C729.469 117.444 723.165 103.641 705.775 88.5143C672.871 59.8932 562.546 40.3159 530.609 44.6625C498.673 49.0102 559.642 62.4536 559.642 62.4536L554.81 62.4116C461.792 52.5439 368.203 51.2742 275.345 53.1975C252.06 53.6797 228.704 54.444 205.906 58.3802C199.345 59.5128 192.291 61.2426 188.386 66.537C171.051 90.0572 241.96 92.3555 253.083 91.902C204.379 98.2361 150.262 100.178 104.966 119.012C98.6462 121.64 92.3856 124.755 87.6238 129.617C82.862 134.479 80.9985 141.296 80.8327 148.309C80.3938 166.863 110.195 173.753 127.374 178.87C127.374 178.87 37.046 238.969 47.6914 269.476C52.0918 282.086 58.6508 295.362 70.8062 308.43C63.8779 317.133 57.7776 326.266 53.0623 335.921C50.1773 341.827 46.3982 349.919 49.6269 356.717C66.0787 391.363 315.584 510.292 515.519 476.348C568.632 467.33 621.529 452.419 668.09 426.048C714.424 399.803 761.641 356.454 773.313 301.791C773.698 299.989 773.979 298.243 774.172 296.544C781.415 271.353 785.645 238.172 778.359 211.914Z" fill="white"/>
<path d="M616.73 177.62C616.73 177.62 617.858 174.234 623.497 173.105C629.137 171.977 635.905 178.184 635.905 178.184C635.905 178.184 640.417 169.155 644.928 168.59C649.44 168.026 654.515 171.976 654.515 171.976" stroke="#263238" stroke-miterlimit="10"/>
<path d="M602.068 199.061C602.068 199.061 603.196 195.676 608.835 194.546C614.475 193.418 621.243 199.625 621.243 199.625C621.243 199.625 625.755 190.597 630.265 190.032C634.777 189.468 639.853 193.417 639.853 193.417" stroke="#263238" stroke-miterlimit="10"/>
<path d="M655.644 199.196C655.644 199.196 656.502 196.619 660.794 195.76C665.087 194.9 670.238 199.625 670.238 199.625C670.238 199.625 673.673 192.752 677.107 192.323C680.541 191.894 684.404 194.9 684.404 194.9" stroke="#263238" stroke-miterlimit="10"/>
<path d="M718.31 221.918C718.31 221.918 718.872 220.228 721.688 219.664C724.503 219.101 727.881 222.199 727.881 222.199C727.881 222.199 730.133 217.692 732.385 217.41C734.636 217.128 737.171 219.1 737.171 219.1" stroke="#263238" stroke-miterlimit="10"/>
<path d="M417.97 171.637C412.143 145.439 381.964 125.914 355.658 129.656C349.102 130.588 342.723 133.042 337.798 137.577C331.081 143.76 332.675 150.78 329.349 158.443C328.426 160.569 326.626 162.458 324.338 162.851C317.796 163.974 312.526 157.448 305.901 157.4C300.948 157.363 294.617 160.102 291.854 164.381C289.281 168.366 291.074 175.32 286.444 177.966C281.266 180.924 274.969 175.296 269.371 177.333C262.415 179.864 265.578 184.926 263.048 188.089C260.519 191.252 255.459 189.987 248.504 189.354C241.548 188.722 235.857 196.947 235.857 196.947H455.278C455.278 196.947 457.175 193.784 448.955 181.129C440.734 168.474 429.353 177.333 424.294 177.333C419.239 177.332 417.972 171.647 417.97 171.637Z" stroke="#263238" stroke-miterlimit="10"/>
<path d="M479.077 129.562C476.74 119.052 464.632 111.219 454.078 112.72C451.447 113.094 448.888 114.079 446.912 115.897C444.217 118.378 444.856 121.194 443.522 124.269C443.152 125.121 442.43 125.879 441.511 126.037C438.887 126.487 436.772 123.869 434.115 123.851C432.127 123.836 429.587 124.934 428.478 126.651C427.446 128.249 428.166 131.04 426.309 132.101C424.232 133.288 421.705 131.031 419.459 131.847C416.668 132.862 417.937 134.893 416.922 136.163C415.908 137.432 413.878 136.925 411.087 136.67C408.296 136.417 406.014 139.716 406.014 139.716H494.042C494.042 139.716 494.803 138.446 491.506 133.37C488.207 128.293 483.641 131.847 481.612 131.847C479.587 131.847 479.078 129.566 479.077 129.562Z" stroke="#263238" stroke-miterlimit="10"/>
<path d="M666.875 258.363C664.537 247.852 652.429 240.02 641.876 241.521C639.245 241.894 636.686 242.88 634.71 244.699C632.015 247.18 632.654 249.996 631.32 253.071C630.95 253.923 630.228 254.681 629.31 254.839C626.686 255.289 624.571 252.671 621.913 252.651C619.926 252.637 617.386 253.735 616.277 255.452C615.245 257.05 615.965 259.84 614.108 260.902C612.031 262.089 609.504 259.831 607.258 260.648C604.467 261.663 605.736 263.694 604.721 264.963C603.706 266.233 601.677 265.725 598.886 265.471C596.095 265.217 593.812 268.517 593.812 268.517H681.841C681.841 268.517 682.603 267.247 679.305 262.171C676.006 257.094 671.44 260.648 669.411 260.648C667.385 260.648 666.876 258.367 666.875 258.363Z" stroke="#263238" stroke-miterlimit="10"/>
<path d="M525.674 246.861C522.092 230.764 503.548 218.766 487.384 221.064C483.355 221.637 479.435 223.145 476.409 225.931C472.282 229.732 473.261 234.045 471.217 238.753C470.65 240.061 469.544 241.221 468.139 241.463C464.119 242.153 460.88 238.143 456.809 238.113C453.765 238.091 449.874 239.773 448.176 242.403C446.596 244.852 447.698 249.125 444.853 250.751C441.67 252.569 437.802 249.111 434.362 250.362C430.088 251.917 432.031 255.027 430.477 256.971C428.923 258.916 425.814 258.138 421.54 257.749C417.266 257.36 413.769 262.414 413.769 262.414H548.6C548.6 262.414 549.767 260.47 544.715 252.694C539.664 244.918 532.669 250.362 529.561 250.362C526.453 250.362 525.675 246.868 525.674 246.861Z" stroke="#263238" stroke-miterlimit="10"/>
<path d="M557.385 432.336C557.385 432.336 549.326 423.98 551.588 424.232C553.849 424.483 558.083 430.731 558.083 430.731C558.083 430.731 558.141 416.957 560.152 419.975C562.162 422.994 559.692 430.789 559.692 430.789C559.692 430.789 565.44 421.816 565.428 423.282C565.388 427.816 560.998 431.363 560.998 431.363C560.998 431.363 570.203 424.54 568.695 427.307C567.187 430.073 561.301 432.688 561.301 432.688C561.301 432.688 571.911 430.546 568.142 432.055C564.372 433.564 560.784 434.6 560.784 434.6H557.853C557.853 434.6 547.833 429.57 551.603 430.324C555.375 431.078 557.385 432.336 557.385 432.336Z" fill="#263238"/>
<path d="M663.816 406.194C663.816 406.194 657.544 399.692 659.304 399.887C661.065 400.083 664.359 404.945 664.359 404.945C664.359 404.945 664.404 394.226 665.969 396.575C667.534 398.924 665.611 404.99 665.611 404.99C665.611 404.99 670.084 398.007 670.074 399.148C670.043 402.677 666.628 405.436 666.628 405.436C666.628 405.436 673.792 400.126 672.618 402.28C671.444 404.433 666.863 406.467 666.863 406.467C666.863 406.467 675.121 404.8 672.187 405.975C669.253 407.149 666.461 407.956 666.461 407.956H664.18C664.18 407.956 656.383 404.041 659.316 404.629C662.251 405.215 663.816 406.194 663.816 406.194Z" fill="#263238"/>
<path d="M762.628 382.866C762.628 382.866 756.356 376.363 758.116 376.559C759.877 376.755 763.17 381.617 763.17 381.617C763.17 381.617 763.216 370.898 764.781 373.247C766.346 375.596 764.423 381.662 764.423 381.662C764.423 381.662 768.896 374.679 768.886 375.82C768.855 379.348 765.44 382.108 765.44 382.108C765.44 382.108 772.602 376.798 771.43 378.951C770.256 381.105 765.676 383.139 765.676 383.139C765.676 383.139 773.934 381.472 771 382.647C768.066 383.821 765.274 384.627 765.274 384.627H762.993C762.993 384.627 755.194 380.713 758.129 381.301C761.064 381.887 762.628 382.866 762.628 382.866Z" fill="#263238"/>
<path d="M636.696 436.146C636.696 436.146 629.204 428.379 631.306 428.612C633.41 428.845 637.345 434.654 637.345 434.654C637.345 434.654 637.399 421.85 639.268 424.656C641.137 427.462 638.84 434.708 638.84 434.708C638.84 434.708 644.185 426.367 644.173 427.729C644.136 431.944 640.055 435.24 640.055 435.24C640.055 435.24 648.612 428.898 647.21 431.47C645.808 434.041 640.337 436.472 640.337 436.472C640.337 436.472 650.201 434.482 646.696 435.884C643.191 437.286 639.856 438.25 639.856 438.25H637.13C637.13 438.25 627.816 433.574 631.321 434.275C634.827 434.977 636.696 436.146 636.696 436.146Z" fill="#92E3A9"/>
<path d="M488.439 402.448L422.155 328.09L407.639 339.711L334.972 230.238L271.711 244.342L252.795 208.983L234.408 208.014L199.568 139.262L147.455 186.837L122.33 177.859L30.8008 271.24" stroke="#263238" stroke-miterlimit="10"/>
<path d="M500.868 416.39L493.919 408.594" stroke="#263238" stroke-miterlimit="10"/>
<path d="M237.744 253.434L232.265 254.918" stroke="#263238" stroke-miterlimit="10"/>
<path d="M271.582 244.262L243.912 251.76" stroke="#263238" stroke-miterlimit="10"/>
<path d="M167.195 212.435L182.689 189.549L181.642 181.699L199.427 145.586" stroke="#263238" stroke-miterlimit="10"/>
<path d="M160.721 221.999L164.607 216.258" stroke="#263238" stroke-miterlimit="10"/>
<path d="M136.678 235.539L111.553 269.628" stroke="#263238" stroke-miterlimit="10"/>
<path d="M123.582 181.699L129.859 195.831L143.982 207.344L142.412 227.756L138.99 232.399" stroke="#263238" stroke-miterlimit="10"/>
<path d="M252.794 208.984L239.702 221.478L234.994 213.627" stroke="#263238" stroke-miterlimit="10"/>
<path d="M781.479 348.874L679.771 277.09L648.894 320.705L610.754 307.984L551.727 390.673L513.585 382.495L494.515 398.85" stroke="#263238" stroke-miterlimit="10"/>
<path d="M679.77 277.09L667.678 330.28L653.417 324.036" stroke="#263238" stroke-miterlimit="10"/>
<path d="M611.08 311.105L581.221 398.06L560.721 394.493" stroke="#263238" stroke-miterlimit="10"/>
<path d="M609.7 304.891C583.232 304.891 561.776 326.214 561.776 352.517C561.776 364.712 566.391 375.835 573.976 384.26C577.447 383.757 583.771 383.411 590.763 385.791C600.026 388.944 605.8 394.112 607.064 395.318H611.358C612.623 394.112 618.396 388.944 627.66 385.791C635.271 383.2 642.097 383.84 645.303 384.397C652.961 375.956 657.624 364.778 657.624 352.517C657.624 326.213 636.169 304.891 609.7 304.891Z" fill="#92E3A9"/>
<path d="M632.009 371.621C630.535 372.334 629.074 373.072 627.631 373.842C626.188 374.632 624.772 375.489 623.444 376.428C622.942 376.775 622.453 377.133 621.963 377.492L629.813 362.858L619.042 379.737C617.951 380.615 616.877 381.512 615.826 382.427C614.086 383.942 612.395 385.486 610.737 387.077L610.19 371.202L621.46 354.031L610.107 368.8L609.618 354.591L608.807 370.49L608.805 370.493L608.807 370.494L607.996 386.429C606.557 385.067 605.092 383.734 603.59 382.427C602.409 381.399 601.206 380.391 599.974 379.411L589.782 361.996L597.268 377.358C596.838 377.045 596.41 376.73 595.972 376.427C594.645 375.489 593.23 374.63 591.785 373.841C590.343 373.071 588.882 372.333 587.407 371.62C584.454 370.202 581.446 368.876 578.339 367.781C581.358 369.061 584.251 370.56 587.078 372.143C588.488 372.939 589.883 373.758 591.255 374.606C592.604 375.461 593.903 376.365 595.137 377.362C597.619 379.329 599.939 381.477 602.172 383.693C604.123 385.632 606.021 387.636 607.83 389.671L606.8 409.896H611.522L610.853 390.493C612.876 388.176 615.029 385.892 617.243 383.693C619.476 381.477 621.795 379.33 624.279 377.362C625.512 376.365 626.81 375.46 628.161 374.606C629.532 373.758 630.926 372.939 632.338 372.143C635.164 370.56 638.058 369.061 641.076 367.781C637.97 368.877 634.962 370.204 632.009 371.621Z" fill="#263238"/>
<path d="M241.745 370.242C241.745 383.927 234.076 384.96 224.616 384.96C215.155 384.96 207.486 383.927 207.486 370.242C207.486 356.558 215.155 327.953 224.616 327.953C234.076 327.952 241.745 356.558 241.745 370.242Z" fill="#92E3A9"/>
<path d="M230.408 376.451L227.574 376.646L234.954 371.668L229.684 374.334L230.408 372.251L227.998 375.187L225.172 376.617L224.948 366.79L226.444 363.153L224.911 365.198L224.781 359.5L229.475 353.238L224.749 358.08L224.462 345.539L224.209 353.565L221.198 350.205L224.161 355.108L223.759 367.822L221.139 366.106L218.75 361.87L219.707 365.171L215.02 362.104L223.704 369.598L222.389 411.328H225.965L225.208 378.242L226.035 377.685L230.408 376.451Z" fill="#263238"/>
<path d="M702.458 323.114C702.458 349.853 687.473 351.872 668.988 351.872C650.503 351.872 635.518 349.854 635.518 323.114C635.518 296.374 650.503 240.48 668.988 240.48C687.473 240.48 702.458 296.376 702.458 323.114Z" fill="#92E3A9"/>
<path opacity="0.31" d="M702.458 323.114C702.458 349.853 687.473 351.872 668.988 351.872C650.503 351.872 635.518 349.854 635.518 323.114C635.518 296.374 650.503 240.48 668.988 240.48C687.473 240.48 702.458 296.376 702.458 323.114Z" fill="white"/>
<path d="M680.305 335.246L674.768 335.627L689.188 325.901L678.89 331.109L680.305 327.04L675.596 332.776L670.074 335.569L669.635 316.367L672.56 309.261L669.564 313.257L669.31 302.124L678.482 289.888L669.247 299.348L668.687 274.844L668.193 290.528L662.309 283.962L668.098 293.541L667.315 318.384L662.192 315.032L657.525 306.754L659.396 313.204L650.235 307.21L667.206 321.855L664.636 403.397H671.622L670.147 338.746L671.761 337.657L680.305 335.246Z" fill="#263238"/>
<path d="M774.104 333.637C774.104 347.321 766.436 348.354 756.975 348.354C747.515 348.354 739.846 347.321 739.846 333.637C739.846 319.952 747.515 291.348 756.975 291.348C766.436 291.348 774.104 319.952 774.104 333.637Z" fill="#92E3A9"/>
<path opacity="0.5" d="M774.104 333.637C774.104 347.321 766.436 348.354 756.975 348.354C747.515 348.354 739.846 347.321 739.846 333.637C739.846 319.952 747.515 291.348 756.975 291.348C766.436 291.348 774.104 319.952 774.104 333.637Z" fill="white"/>
<path d="M762.767 339.845L759.934 340.041L767.314 335.063L762.043 337.728L762.767 335.646L760.358 338.581L757.531 340.01L757.307 330.184L758.804 326.548L757.271 328.593L757.14 322.895L761.834 316.632L757.108 321.475L756.822 308.934L756.569 316.96L753.558 313.599L756.52 318.502L756.12 331.216L753.498 329.501L751.109 325.264L752.067 328.565L747.379 325.497L756.064 332.992L754.748 374.723H758.324L757.568 341.637L758.395 341.079L762.767 339.845Z" fill="#263238"/>
<path d="M75.8983 322.066C75.8983 335.751 68.2295 336.784 58.769 336.784C49.3084 336.784 41.6396 335.751 41.6396 322.066C41.6396 308.382 49.3084 279.777 58.769 279.777C68.2295 279.777 75.8983 308.382 75.8983 322.066Z" fill="#92E3A9"/>
<path opacity="0.5" d="M75.8983 322.066C75.8983 335.751 68.2295 336.784 58.769 336.784C49.3084 336.784 41.6396 335.751 41.6396 322.066C41.6396 308.382 49.3084 279.777 58.769 279.777C68.2295 279.777 75.8983 308.382 75.8983 322.066Z" fill="white"/>
<path d="M64.5613 328.276L61.7283 328.471L69.1075 323.494L63.8373 326.159L64.5613 324.077L62.1517 327.012L59.3253 328.441L59.101 318.614L60.5976 314.977L59.0645 317.022L58.9341 311.325L63.6284 305.062L58.902 309.904L58.6157 297.363L58.3626 305.391L55.3517 302.03L58.314 306.932L57.9138 319.646L55.292 317.932L52.9034 313.695L53.8606 316.995L49.1729 313.928L57.8575 321.423L56.5421 363.154H60.1179L59.3629 330.067L60.1886 329.51L64.5613 328.276Z" fill="#263238"/>
<path d="M160.781 291.035C134.314 291.035 112.857 312.359 112.857 338.662C112.857 350.857 117.472 361.98 125.057 370.405C128.528 369.902 134.852 369.556 141.844 371.936C151.107 375.089 156.881 380.256 158.145 381.463H162.439C163.704 380.256 169.477 375.089 178.741 371.936C186.352 369.345 193.178 369.985 196.384 370.541C204.042 362.1 208.705 350.923 208.705 338.662C208.705 312.359 187.249 291.035 160.781 291.035Z" fill="#92E3A9"/>
<path opacity="0.33" d="M160.781 291.035C134.314 291.035 112.857 312.359 112.857 338.662C112.857 350.857 117.472 361.98 125.057 370.405C128.528 369.902 134.852 369.556 141.844 371.936C151.107 375.089 156.881 380.256 158.145 381.463H162.439C163.704 380.256 169.477 375.089 178.741 371.936C186.352 369.345 193.178 369.985 196.384 370.541C204.042 362.1 208.705 350.923 208.705 338.662C208.705 312.359 187.249 291.035 160.781 291.035Z" fill="white"/>
<path d="M183.089 357.766C181.615 358.479 180.154 359.217 178.711 359.986C177.268 360.776 175.852 361.633 174.524 362.572C174.022 362.92 173.533 363.278 173.043 363.636L180.893 349.003L170.122 365.881C169.031 366.76 167.958 367.657 166.906 368.571C165.166 370.086 163.475 371.63 161.817 373.222L161.27 357.346L172.54 340.176L161.187 354.944L160.698 340.735L159.888 356.634L159.886 356.637L159.888 356.639L159.077 372.574C157.638 371.211 156.173 369.879 154.671 368.571C153.49 367.544 152.287 366.535 151.055 365.555L140.863 348.14L148.349 363.502C147.919 363.189 147.492 362.874 147.052 362.571C145.725 361.633 144.31 360.775 142.865 359.985C141.423 359.216 139.961 358.478 138.488 357.765C135.536 356.347 132.527 355.021 129.42 353.926C132.439 355.205 135.332 356.704 138.159 358.288C139.569 359.084 140.964 359.902 142.336 360.751C143.685 361.606 144.984 362.509 146.218 363.507C148.7 365.473 151.02 367.621 153.253 369.838C155.204 371.776 157.103 373.782 158.911 375.816L157.881 396.041H162.603L161.934 376.637C163.957 374.32 166.11 372.037 168.324 369.838C170.557 367.621 172.876 365.474 175.36 363.507C176.593 362.509 177.891 361.606 179.242 360.751C180.613 359.902 182.007 359.084 183.419 358.288C186.246 356.705 189.139 355.205 192.158 353.926C189.05 355.022 186.042 356.348 183.089 357.766Z" fill="#263238"/>
<path d="M293.838 433.164V389.282H236.757V361.188L285.718 245.098H327.485V361.885H345.584V389.282H327.485V433.164H293.838ZM265.066 361.885H293.838V282.015L265.066 361.885Z" fill="#263238"/>
<path d="M412.875 433.265C401.582 433.265 392.223 430.944 384.798 426.3C377.373 421.656 371.804 415.271 368.091 407.144C364.378 399.018 362.522 389.615 362.522 378.934V294.654C362.522 283.664 364.299 274.029 367.859 265.747C371.416 257.469 376.908 251.004 384.334 246.36C391.76 241.716 401.272 239.395 412.875 239.395C424.322 239.395 433.719 241.716 441.067 246.36C448.413 251.004 453.866 257.469 457.426 265.747C460.983 274.029 462.763 283.665 462.763 294.654V378.934C462.763 389.615 460.907 399.018 457.194 407.144C453.481 415.271 447.912 421.656 440.487 426.3C433.061 430.944 423.856 433.265 412.875 433.265ZM412.875 401.689C417.052 401.689 420.068 400.375 421.924 397.741C423.78 395.11 425.017 391.976 425.637 388.337C426.254 384.702 426.565 381.335 426.565 378.237V295.349C426.565 291.946 426.294 288.384 425.753 284.669C425.209 280.954 424.013 277.743 422.156 275.033C420.3 272.328 417.204 270.97 412.875 270.97C408.542 270.97 405.409 272.327 403.477 275.033C401.542 277.743 400.305 280.954 399.764 284.669C399.221 288.384 398.952 291.946 398.952 295.349V378.237C398.952 381.335 399.26 384.702 399.88 388.337C400.497 391.976 401.813 395.11 403.825 397.741C405.834 400.375 408.85 401.689 412.875 401.689Z" fill="#263238"/>
<path d="M539.336 433.164V389.282H482.254V361.188L531.215 245.098H572.981V361.885H591.08V389.282H572.981V433.164H539.336ZM510.563 361.885H539.336V282.015L510.563 361.885Z" fill="#263238"/>
<path d="M795.961 342.462C723.697 389.863 580.979 422.125 416.723 422.125C247.428 422.125 101.008 387.854 31.0303 338.059V528.671H795.961V342.462Z" fill="white"/>
<path d="M780.263 351.917C704.194 394.102 569.811 422.125 416.723 422.125C247.428 422.125 101.008 387.854 31.0303 338.059" stroke="#263238" stroke-miterlimit="10"/>
<path d="M796.296 342.246C793.038 344.391 789.637 346.505 786.097 348.587" stroke="#263238" stroke-miterlimit="10"/>
<path d="M749.825 331.415C749.825 359.375 734.156 361.486 714.825 361.486C695.495 361.486 679.826 359.375 679.826 331.415C679.826 303.454 695.495 245.008 714.825 245.008C734.156 245.008 749.825 303.455 749.825 331.415Z" fill="#92E3A9"/>
<path d="M726.659 344.103L720.87 344.502L735.949 334.33L725.18 339.777L726.659 335.522L721.736 341.519L715.962 344.44L715.503 324.362L718.56 316.932L715.429 321.11L715.163 309.468L724.753 296.672L715.096 306.565L714.511 280.941L713.994 297.342L707.842 290.475L713.895 300.493L713.076 326.471L707.719 322.966L702.839 314.309L704.797 321.054L695.217 314.786L712.962 330.1L710.275 415.367H717.581L716.037 347.763L717.725 346.623L726.659 344.103Z" fill="#263238"/>
<path d="M712.468 416.117C712.468 416.117 699.55 402.724 703.177 403.128C706.802 403.532 713.588 413.545 713.588 413.545C713.588 413.545 713.682 391.469 716.905 396.306C720.128 401.144 716.168 413.638 716.168 413.638C716.168 413.638 725.381 399.257 725.361 401.606C725.297 408.873 718.262 414.556 718.262 414.556C718.262 414.556 733.015 403.621 730.598 408.055C728.181 412.489 718.748 416.68 718.748 416.68C718.748 416.68 735.754 413.247 729.711 415.666C723.669 418.084 717.919 419.745 717.919 419.745H713.22C713.22 419.745 697.16 411.683 703.203 412.892C709.245 414.102 712.468 416.117 712.468 416.117Z" fill="#263238"/>
<path d="M93.649 399.492C93.649 399.492 82.4763 387.909 85.6121 388.258C88.7479 388.606 94.6173 397.268 94.6173 397.268C94.6173 397.268 94.698 378.173 97.4856 382.357C100.273 386.541 96.8478 397.348 96.8478 397.348C96.8478 397.348 104.816 384.909 104.798 386.94C104.743 393.226 98.6584 398.142 98.6584 398.142C98.6584 398.142 111.418 388.683 109.328 392.519C107.238 396.355 99.0784 399.979 99.0784 399.979C99.0784 399.979 113.788 397.009 108.561 399.102C103.334 401.193 98.361 402.63 98.361 402.63H94.2967C94.2967 402.63 80.406 395.657 85.6331 396.703C90.8613 397.749 93.649 399.492 93.649 399.492Z" fill="#263238"/>
<path d="M134.034 316.173C134.034 344.164 118.347 346.277 98.9968 346.277C79.6469 346.277 63.96 344.164 63.96 316.173C63.96 288.183 79.6469 229.672 98.9968 229.672C118.347 229.672 134.034 288.183 134.034 316.173Z" fill="#92E3A9"/>
<path d="M110.844 328.875L105.049 329.274L120.143 319.092L109.363 324.545L110.844 320.284L105.915 326.289L100.133 329.213L99.6744 309.113L102.736 301.674L99.6003 305.856L99.3339 294.203L108.936 281.393L99.2676 291.297L98.6818 265.645L98.1645 282.063L92.0056 275.189L98.065 285.217L97.246 311.224L91.8829 307.715L86.9973 299.049L88.9559 305.8L79.3672 299.527L97.131 314.857L94.4406 400.216H101.756L100.209 332.539L101.899 331.398L110.844 328.875Z" fill="#263238"/>
<path d="M215.97 428.59C215.97 428.59 204.797 417.007 207.933 417.355C211.069 417.704 216.938 426.366 216.938 426.366C216.938 426.366 217.02 407.271 219.807 411.455C222.594 415.639 219.169 426.446 219.169 426.446C219.169 426.446 227.137 414.006 227.119 416.038C227.064 422.323 220.979 427.24 220.979 427.24C220.979 427.24 233.739 417.781 231.649 421.617C229.559 425.452 221.399 429.077 221.399 429.077C221.399 429.077 236.109 426.108 230.882 428.2C225.655 430.291 220.682 431.728 220.682 431.728H216.618C216.618 431.728 202.728 424.754 207.954 425.801C213.182 426.846 215.97 428.59 215.97 428.59Z" fill="#263238"/>
<path d="M275.272 453.973C275.272 453.973 264.099 442.39 267.235 442.738C270.371 443.086 276.24 451.749 276.24 451.749C276.24 451.749 276.321 432.654 279.109 436.838C281.896 441.022 278.471 451.828 278.471 451.828C278.471 451.828 286.44 439.389 286.422 441.421C286.366 447.706 280.281 452.622 280.281 452.622C280.281 452.622 293.041 443.164 290.951 446.999C288.861 450.835 280.701 454.459 280.701 454.459C280.701 454.459 295.411 451.491 290.184 453.582C284.957 455.675 279.984 457.111 279.984 457.111H275.92C275.92 457.111 262.029 450.137 267.256 451.183C272.484 452.23 275.272 453.973 275.272 453.973Z" fill="#263238"/>
<path d="M434.333 436.929C434.333 436.929 426.274 428.575 428.536 428.826C430.797 429.077 435.031 435.325 435.031 435.325C435.031 435.325 435.089 421.552 437.1 424.569C439.111 427.587 436.64 435.382 436.64 435.382C436.64 435.382 442.389 426.409 442.376 427.876C442.336 432.409 437.947 435.956 437.947 435.956C437.947 435.956 447.151 429.134 445.643 431.9C444.135 434.667 438.25 437.281 438.25 437.281C438.25 437.281 448.86 435.14 445.089 436.649C441.319 438.157 437.732 439.193 437.732 439.193H434.801C434.801 439.193 424.781 434.163 428.551 434.918C432.323 435.672 434.333 436.929 434.333 436.929Z" fill="#263238"/>
<path d="M747.172 416.936C747.172 416.936 740.901 410.434 742.661 410.629C744.42 410.825 747.715 415.687 747.715 415.687C747.715 415.687 747.761 404.968 749.326 407.317C750.891 409.666 748.968 415.733 748.968 415.733C748.968 415.733 753.441 408.749 753.431 409.891C753.4 413.419 749.984 416.178 749.984 416.178C749.984 416.178 757.148 410.869 755.974 413.022C754.8 415.175 750.22 417.209 750.22 417.209C750.22 417.209 758.478 415.542 755.543 416.717C752.61 417.891 749.818 418.698 749.818 418.698H747.536C747.536 418.698 739.739 414.784 742.673 415.371C745.607 415.957 747.172 416.936 747.172 416.936Z" fill="#263238"/>
<path d="M324.86 436.973C324.86 436.973 313.687 425.39 316.823 425.738C319.959 426.086 325.828 434.749 325.828 434.749C325.828 434.749 325.909 415.654 328.696 419.838C331.484 424.022 328.058 434.828 328.058 434.828C328.058 434.828 336.028 422.389 336.009 424.421C335.954 430.706 329.869 435.622 329.869 435.622C329.869 435.622 342.629 426.164 340.539 429.999C338.449 433.835 330.289 437.459 330.289 437.459C330.289 437.459 344.999 434.49 339.772 436.582C334.545 438.674 329.572 440.111 329.572 440.111H325.507C325.507 440.111 311.618 433.137 316.844 434.183C322.073 435.23 324.86 436.973 324.86 436.973Z" fill="#92E3A9"/>
<path d="M244.236 429.279C244.236 429.279 236.744 421.511 238.846 421.745C240.949 421.978 244.885 427.787 244.885 427.787C244.885 427.787 244.939 414.983 246.808 417.789C248.677 420.595 246.38 427.841 246.38 427.841C246.38 427.841 251.724 419.5 251.713 420.862C251.676 425.077 247.595 428.373 247.595 428.373C247.595 428.373 256.152 422.031 254.75 424.603C253.348 427.174 247.877 429.605 247.877 429.605C247.877 429.605 257.741 427.614 254.236 429.017C250.731 430.419 247.396 431.382 247.396 431.382H244.67C244.67 431.382 235.356 426.706 238.861 427.408C242.367 428.11 244.236 429.279 244.236 429.279Z" fill="#92E3A9"/>
<path d="M150.616 459.959C150.616 459.959 143.124 452.192 145.226 452.425C147.33 452.659 151.265 458.467 151.265 458.467C151.265 458.467 151.319 445.663 153.188 448.468C155.057 451.274 152.76 458.52 152.76 458.52C152.76 458.52 158.104 450.179 158.092 451.542C158.056 455.757 153.975 459.052 153.975 459.052C153.975 459.052 162.531 452.711 161.13 455.282C159.728 457.854 154.257 460.285 154.257 460.285C154.257 460.285 164.121 458.294 160.616 459.696C157.111 461.099 153.776 462.062 153.776 462.062H151.05C151.05 462.062 141.736 457.386 145.241 458.087C148.747 458.79 150.616 459.959 150.616 459.959Z" fill="#92E3A9"/>
<path d="M401.269 461.463C401.269 461.463 393.777 453.695 395.88 453.928C397.982 454.162 401.918 459.971 401.918 459.971C401.918 459.971 401.972 447.166 403.841 449.972C405.711 452.778 403.414 460.025 403.414 460.025C403.414 460.025 408.757 451.683 408.746 453.046C408.709 457.261 404.628 460.557 404.628 460.557C404.628 460.557 413.185 454.215 411.783 456.786C410.382 459.358 404.91 461.789 404.91 461.789C404.91 461.789 414.774 459.798 411.269 461.2C407.764 462.603 404.429 463.566 404.429 463.566H401.704C401.704 463.566 392.389 458.89 395.894 459.591C399.4 460.293 401.269 461.463 401.269 461.463Z" fill="#92E3A9"/>
<path d="M522.826 461.869C522.826 461.869 515.334 454.101 517.436 454.335C519.539 454.568 523.475 460.377 523.475 460.377C523.475 460.377 523.529 447.573 525.398 450.379C527.267 453.184 524.97 460.431 524.97 460.431C524.97 460.431 530.313 452.089 530.302 453.452C530.266 457.667 526.185 460.963 526.185 460.963C526.185 460.963 534.741 454.621 533.34 457.193C531.938 459.764 526.467 462.195 526.467 462.195C526.467 462.195 536.331 460.204 532.826 461.607C529.321 463.009 525.986 463.972 525.986 463.972H523.26C523.26 463.972 513.946 459.296 517.451 459.997C520.956 460.699 522.826 461.869 522.826 461.869Z" fill="#92E3A9"/>
<path d="M748.829 437.571C748.829 437.571 737.422 425.744 740.623 426.1C743.825 426.456 749.817 435.3 749.817 435.3C749.817 435.3 749.9 415.804 752.746 420.077C755.592 424.348 752.095 435.382 752.095 435.382C752.095 435.382 760.231 422.683 760.213 424.756C760.156 431.173 753.944 436.192 753.944 436.192C753.944 436.192 766.972 426.536 764.837 430.452C762.703 434.368 754.373 438.068 754.373 438.068C754.373 438.068 769.391 435.037 764.055 437.172C758.718 439.308 753.64 440.775 753.64 440.775H749.491C749.491 440.775 735.309 433.655 740.646 434.724C745.984 435.791 748.829 437.571 748.829 437.571Z" fill="#92E3A9"/>
<path d="M69.1255 437.571C69.1255 437.571 57.7185 425.744 60.9207 426.1C64.1228 426.456 70.1148 435.3 70.1148 435.3C70.1148 435.3 70.1977 415.804 73.044 420.077C75.8902 424.348 72.3929 435.382 72.3929 435.382C72.3929 435.382 80.5293 422.683 80.5105 424.756C80.4541 431.173 74.2421 436.192 74.2421 436.192C74.2421 436.192 87.2696 426.536 85.1352 430.452C83.0008 434.368 74.671 438.068 74.671 438.068C74.671 438.068 89.6892 435.037 84.3526 437.172C79.0161 439.308 73.9382 440.775 73.9382 440.775H69.7888C69.7888 440.775 55.6073 433.655 60.9439 434.724C66.2793 435.791 69.1255 437.571 69.1255 437.571Z" fill="#92E3A9"/>
<path d="M125.397 420.873C125.397 420.873 113.722 400.729 117.052 399.174C120.382 397.619 127.263 412.946 127.263 412.946C127.263 412.946 125.932 384.071 129.04 386.736C132.148 389.402 135.034 409.836 135.034 409.836C135.034 409.836 141.249 387.624 143.248 392.288C145.246 396.952 141.65 411.067 141.65 411.067C141.65 411.067 150.573 394.066 151.461 399.619C152.349 405.172 147.243 414.279 147.243 414.279C147.243 414.279 159.009 402.507 159.896 407.171C160.784 411.835 156.788 416.5 156.788 416.5C156.788 416.5 172.327 408.059 168.553 412.724C164.78 417.388 159.23 423.386 159.23 423.386C159.23 423.386 174.103 418.055 172.327 421.165C170.551 424.275 163.891 427.606 163.891 427.606C163.891 427.606 176.1 425.385 174.768 427.384C173.437 429.383 170.336 431.346 170.336 431.346H115.054C115.054 431.346 100.403 426.051 106.175 425.607C111.947 425.162 117.273 427.605 117.273 427.605C117.273 427.605 99.293 415.388 107.728 414.5C116.164 413.612 123.044 424.273 123.044 424.273C123.044 424.273 111.057 407.392 115.275 410.057L125.397 420.873Z" fill="#92E3A9"/>
<path d="M126.149 426.603C126.149 426.603 111.076 410.977 115.306 411.448C119.536 411.919 127.454 423.603 127.454 423.603C127.454 423.603 127.563 397.844 131.324 403.488C135.084 409.132 130.464 423.71 130.464 423.71C130.464 423.71 141.214 406.93 141.19 409.671C141.116 418.149 132.908 424.782 132.908 424.782C132.908 424.782 150.121 412.023 147.301 417.197C144.48 422.371 133.475 427.26 133.475 427.26C133.475 427.26 153.319 423.256 146.268 426.077C139.217 428.9 132.508 430.837 132.508 430.837H127.025C127.025 430.837 108.287 421.431 115.338 422.842C122.388 424.252 126.149 426.603 126.149 426.603Z" fill="#263238" stroke="#263238" stroke-miterlimit="10"/>
<path d="M622.527 456.316C622.527 456.316 600.463 418.242 606.755 415.304C613.049 412.365 626.056 441.333 626.056 441.333C626.056 441.333 623.538 386.755 629.413 391.793C635.286 396.831 640.741 435.456 640.741 435.456C640.741 435.456 652.489 393.473 656.266 402.289C660.041 411.105 653.247 437.783 653.247 437.783C653.247 437.783 670.112 405.648 671.79 416.144C673.468 426.64 663.818 443.853 663.818 443.853C663.818 443.853 686.055 421.602 687.734 430.418C689.412 439.234 681.861 448.051 681.861 448.051C681.861 448.051 711.23 432.098 704.098 440.914C696.965 449.73 686.475 461.065 686.475 461.065C686.475 461.065 714.587 450.99 711.23 456.867C707.874 462.744 695.287 469.042 695.287 469.042C695.287 469.042 718.364 464.844 715.846 468.623C713.328 472.401 707.468 476.11 707.468 476.11H602.98C602.98 476.11 575.288 466.103 586.196 465.264C597.105 464.424 607.174 469.042 607.174 469.042C607.174 469.042 573.189 445.951 589.133 444.272C605.076 442.593 618.084 462.744 618.084 462.744C618.084 462.744 595.427 430.837 603.398 435.875L622.527 456.316Z" fill="#92E3A9"/>
<path d="M623.947 467.149C623.947 467.149 595.459 437.615 603.455 438.503C611.451 439.391 626.415 461.477 626.415 461.477C626.415 461.477 626.621 412.789 633.73 423.458C640.837 434.126 632.104 461.68 632.104 461.68C632.104 461.68 652.423 429.963 652.378 435.145C652.237 451.171 636.723 463.706 636.723 463.706C636.723 463.706 669.258 439.59 663.929 449.369C658.597 459.148 637.794 468.39 637.794 468.39C637.794 468.39 675.3 460.82 661.973 466.154C648.646 471.488 635.965 475.15 635.965 475.15H625.602C625.602 475.15 590.185 457.37 603.512 460.037C616.84 462.704 623.947 467.149 623.947 467.149Z" fill="#263238" stroke="#263238" stroke-miterlimit="10"/>
<path d="M163.42 422.014C163.42 422.014 165.677 419.973 167.613 419.973C169.548 419.973 175.461 422.816 175.461 422.816C175.461 422.816 177.826 426.462 178.041 426.681C178.256 426.9 181.158 428.139 181.373 428.649C181.589 429.16 182.019 430.837 182.019 430.837H163.959L160.626 422.087L163.42 422.014Z" fill="white" stroke="#263238" stroke-miterlimit="10"/>
<path d="M167.613 419.974L167.506 421.694C167.506 421.694 172.128 424.383 172.021 425.352C171.914 426.32 170.946 428.579 170.946 428.579L173.311 431.053H160.733L161.701 423.631C161.701 423.631 164.388 419.758 167.613 419.974Z" fill="#263238"/>
<path d="M139.878 420.943C139.878 420.943 148.909 407.39 150.95 407.174C152.993 406.96 157.293 408.681 158.905 411.477C160.518 414.274 162.022 419.759 162.131 420.082C162.238 420.405 162.668 420.62 165.14 424.6C167.613 428.58 167.506 430.839 167.506 430.839H132.567C132.567 430.839 133.32 427.289 134.61 425.246C135.9 423.204 138.91 422.449 138.91 422.449L139.878 420.943Z" fill="white" stroke="#263238" stroke-miterlimit="10"/>
<path d="M153.746 430.625C153.746 430.625 152.778 428.258 152.67 427.936C152.563 427.613 152.563 424.494 152.24 423.203C151.917 421.913 149.23 417.932 149.23 417.932L151.166 412.339L150.199 411.586L151.811 407.606L150.908 407.188C148.792 407.568 139.878 420.944 139.878 420.944L138.911 422.45C138.911 422.45 135.901 423.203 134.611 425.247C133.508 426.995 132.8 429.837 132.617 430.626L153.746 430.625Z" fill="#263238"/>
<path d="M511.592 425.389C511.592 425.389 513.008 424.109 514.22 424.109C515.434 424.109 519.141 425.892 519.141 425.892C519.141 425.892 520.625 428.178 520.759 428.316C520.894 428.453 522.715 429.23 522.849 429.55C522.983 429.869 523.253 430.921 523.253 430.921H511.929L509.84 425.435L511.592 425.389Z" fill="white" stroke="#263238" stroke-miterlimit="10"/>
<path d="M514.221 424.107L514.154 425.186C514.154 425.186 517.052 426.873 516.985 427.479C516.917 428.085 516.31 429.502 516.31 429.502L517.794 431.054H509.907L510.514 426.4C510.514 426.4 512.199 423.972 514.221 424.107Z" fill="#263238"/>
<path d="M496.831 424.714C496.831 424.714 502.492 416.215 503.773 416.082C505.055 415.947 507.75 417.026 508.762 418.779C509.773 420.532 510.716 423.972 510.783 424.174C510.851 424.377 511.121 424.512 512.67 427.007C514.221 429.502 514.154 430.919 514.154 430.919H492.247C492.247 430.919 492.719 428.693 493.528 427.412C494.337 426.13 496.224 425.657 496.224 425.657L496.831 424.714Z" fill="white" stroke="#263238" stroke-miterlimit="10"/>
<path d="M505.526 430.785C505.526 430.785 504.919 429.301 504.852 429.099C504.784 428.896 504.784 426.941 504.582 426.131C504.38 425.322 502.694 422.826 502.694 422.826L503.908 419.319L503.301 418.847L504.312 416.352L503.746 416.09C502.419 416.329 496.83 424.716 496.83 424.716L496.223 425.66C496.223 425.66 494.337 426.132 493.527 427.414C492.836 428.51 492.391 430.292 492.277 430.786H505.526V430.785Z" fill="#263238"/>
<path d="M694.396 458.472C694.396 458.472 698.662 454.613 702.32 454.613C705.978 454.613 717.152 459.988 717.152 459.988C717.152 459.988 721.622 466.879 722.029 467.292C722.436 467.706 727.922 470.049 728.328 471.013C728.735 471.977 729.548 475.147 729.548 475.147H695.412L689.112 458.609L694.396 458.472Z" fill="white" stroke="#263238" stroke-miterlimit="10"/>
<path d="M702.32 454.614L702.116 457.867C702.116 457.867 710.854 462.95 710.651 464.779C710.447 466.609 708.619 470.879 708.619 470.879L713.089 475.555H689.315L691.144 461.527C691.144 461.527 696.224 454.207 702.32 454.614Z" fill="#263238"/>
<path d="M649.898 456.445C649.898 456.445 666.965 430.828 670.826 430.421C674.687 430.014 682.815 433.268 685.862 438.553C688.909 443.839 691.754 454.209 691.958 454.818C692.161 455.429 692.974 455.835 697.647 463.358C702.32 470.881 702.117 475.15 702.117 475.15H636.081C636.081 475.15 637.504 468.441 639.942 464.578C642.38 460.714 648.069 459.291 648.069 459.291L649.898 456.445Z" fill="white" stroke="#263238" stroke-miterlimit="10"/>
<path d="M676.109 474.742C676.109 474.742 674.28 470.27 674.077 469.659C673.874 469.049 673.874 463.152 673.265 460.714C672.655 458.274 667.575 450.751 667.575 450.751L671.233 440.179L669.405 438.755L672.452 431.232L670.745 430.441C666.744 431.16 649.898 456.443 649.898 456.443L648.07 459.29C648.07 459.29 642.38 460.714 639.942 464.577C637.857 467.881 636.519 473.251 636.173 474.742H676.109Z" fill="#263238"/>
</svg>
