<svg width="60" height="60" viewBox="0 0 60 60" fill="none" xmlns="http://www.w3.org/2000/svg">
<path fill-rule="evenodd" clip-rule="evenodd" d="M30 60C46.5685 60 60 46.5685 60 30C60 13.4315 46.5685 0 30 0C13.4315 0 0 13.4315 0 30C0 46.5685 13.4315 60 30 60ZM30 55C43.8071 55 55 43.8071 55 30C55 16.1929 43.8071 5 30 5C16.1929 5 5 16.1929 5 30C5 43.8071 16.1929 55 30 55Z" fill="url(#paint0_angular_427_8125)"/>
<path fill-rule="evenodd" clip-rule="evenodd" d="M56.9541 24.0013C58.3234 23.8246 59.5767 24.7915 59.7534 26.1609C59.9176 27.4338 60 28.716 60 29.9996C60 31.3803 58.8807 32.4996 57.5 32.4996C56.1193 32.4996 55 31.3803 55 29.9996C55 28.93 54.9314 27.8614 54.7945 26.8006C54.6178 25.4313 55.5847 24.178 56.9541 24.0013Z" fill="#3AE180"/>
<defs>
<radialGradient id="paint0_angular_427_8125" cx="0" cy="0" r="1" gradientUnits="userSpaceOnUse" gradientTransform="translate(30 30) scale(30)">
<stop stop-color="#27AE60" stop-opacity="0"/>
<stop offset="0.0001" stop-color="#3AE180" stop-opacity="0"/>
<stop offset="1" stop-color="#34A853"/>
</radialGradient>
</defs>
</svg>
