<svg width="22" height="21" viewBox="0 0 22 21" fill="none" xmlns="http://www.w3.org/2000/svg">
<path d="M14.725 11.1744L13.625 10.0744C14.0583 8.89108 13.8333 7.90775 12.95 7.12441C12.0667 6.34108 11.1083 6.14108 10.075 6.52441L8.975 5.42441C9.25833 5.24108 9.575 5.10775 9.925 5.02441C10.275 4.94108 10.6333 4.89941 11 4.89941C12.1833 4.89941 13.1875 5.31191 14.0125 6.13691C14.8375 6.96191 15.25 7.96608 15.25 9.14941C15.25 9.51608 15.2042 9.87858 15.1125 10.2369C15.0208 10.5952 14.8917 10.9077 14.725 11.1744ZM17.95 14.3994L16.95 13.3994C17.7667 12.7994 18.4792 12.1286 19.0875 11.3869C19.6958 10.6452 20.1417 9.89941 20.425 9.14941C19.5917 7.29941 18.3417 5.83691 16.675 4.76191C15.0083 3.68691 13.2 3.14941 11.25 3.14941C10.55 3.14941 9.83333 3.21608 9.1 3.34941C8.36667 3.48275 7.79167 3.64108 7.375 3.82441L6.225 2.64941C6.80833 2.38275 7.55417 2.14941 8.4625 1.94941C9.37083 1.74941 10.2583 1.64941 11.125 1.64941C13.5083 1.64941 15.6875 2.32858 17.6625 3.68691C19.6375 5.04525 21.0833 6.86608 22 9.14941C21.5667 10.2161 21.0083 11.1911 20.325 12.0744C19.6417 12.9577 18.85 13.7327 17.95 14.3994ZM19.4 20.0494L15.2 15.9244C14.6167 16.1577 13.9583 16.3369 13.225 16.4619C12.4917 16.5869 11.75 16.6494 11 16.6494C8.56667 16.6494 6.35833 15.9702 4.375 14.6119C2.39167 13.2536 0.933333 11.4327 0 9.14941C0.333333 8.28275 0.795833 7.43691 1.3875 6.61191C1.97917 5.78691 2.7 4.99941 3.55 4.24941L0.4 1.09941L1.45 0.0244141L20.375 18.9494L19.4 20.0494ZM4.575 5.29941C3.95833 5.74941 3.3625 6.34108 2.7875 7.07441C2.2125 7.80775 1.8 8.49941 1.55 9.14941C2.4 10.9994 3.67917 12.4619 5.3875 13.5369C7.09583 14.6119 9.03333 15.1494 11.2 15.1494C11.75 15.1494 12.2917 15.1161 12.825 15.0494C13.3583 14.9827 13.7583 14.8827 14.025 14.7494L12.425 13.1494C12.2417 13.2327 12.0167 13.2952 11.75 13.3369C11.4833 13.3786 11.2333 13.3994 11 13.3994C9.83333 13.3994 8.83333 12.9911 8 12.1744C7.16667 11.3577 6.75 10.3494 6.75 9.14941C6.75 8.89941 6.77083 8.64941 6.8125 8.39941C6.85417 8.14941 6.91667 7.92441 7 7.72441L4.575 5.29941Z" fill="#1B1B1B"/>
</svg>
