<svg width="32" height="32" viewBox="0 0 32 32" fill="none" xmlns="http://www.w3.org/2000/svg">
<path d="M28.4793 13.8911L23.0021 18.6712L24.6428 25.7878C24.7297 26.1599 24.7049 26.5492 24.5716 26.9073C24.4383 27.2653 24.2025 27.5761 23.8935 27.8008C23.5846 28.0255 23.2162 28.1542 22.8345 28.1707C22.4529 28.1872 22.0748 28.0909 21.7476 27.8937L15.5405 24.1289L9.34687 27.8937C9.01966 28.0909 8.64158 28.1872 8.25991 28.1707C7.87823 28.1542 7.50989 28.0255 7.20093 27.8008C6.89198 27.5761 6.65612 27.2653 6.52285 26.9073C6.38958 26.5492 6.3648 26.1599 6.45163 25.7878L8.08992 18.6784L2.61155 13.8911C2.32179 13.6412 2.11226 13.3113 2.00925 12.9428C1.90623 12.5743 1.91431 12.1836 2.03246 11.8196C2.15062 11.4557 2.3736 11.1347 2.67343 10.897C2.97327 10.6593 3.33661 10.5154 3.71791 10.4834L10.939 9.85791L13.7577 3.13473C13.9049 2.78196 14.1532 2.48062 14.4713 2.26866C14.7894 2.0567 15.1632 1.9436 15.5454 1.9436C15.9277 1.9436 16.3014 2.0567 16.6195 2.26866C16.9376 2.48062 17.1859 2.78196 17.3331 3.13473L20.1603 9.85791L27.379 10.4834C27.7603 10.5154 28.1236 10.6593 28.4235 10.897C28.7233 11.1347 28.9463 11.4557 29.0644 11.8196C29.1826 12.1836 29.1907 12.5743 29.0876 12.9428C28.9846 13.3113 28.7751 13.6412 28.4853 13.8911H28.4793Z" fill="black"/>
</svg>
