<svg width="22" height="24" viewBox="0 0 22 20" fill="none" xmlns="http://www.w3.org/2000/svg">
<path d="M11.003 12.6553C12.1843 12.6553 13.1875 12.2418 14.0125 11.4148C14.8375 10.5879 15.25 9.58371 15.25 8.40232C15.25 7.22096 14.8365 6.21777 14.0096 5.39277C13.1826 4.56777 12.1784 4.15527 10.9971 4.15527C9.81568 4.15527 8.8125 4.56876 7.9875 5.39572C7.1625 6.22267 6.75 7.22684 6.75 8.40822C6.75 9.58959 7.16348 10.5928 7.99045 11.4178C8.8174 12.2428 9.82157 12.6553 11.003 12.6553ZM10.9941 11.2053C10.2147 11.2053 9.55417 10.9325 9.0125 10.3869C8.47083 9.8413 8.2 9.1788 8.2 8.3994C8.2 7.61998 8.47279 6.95944 9.01837 6.41777C9.56397 5.87611 10.2265 5.60527 11.0059 5.60527C11.7853 5.60527 12.4458 5.87806 12.9875 6.42365C13.5292 6.96925 13.8 7.63175 13.8 8.41115C13.8 9.19057 13.5272 9.85111 12.9816 10.3928C12.436 10.9344 11.7735 11.2053 10.9941 11.2053ZM11 15.9053C8.56667 15.9053 6.36667 15.2136 4.4 13.8303C2.43333 12.4469 0.966667 10.6386 0 8.40527C0.966667 6.17194 2.43333 4.36361 4.4 2.98027C6.36667 1.59694 8.56667 0.905273 11 0.905273C13.4333 0.905273 15.6333 1.59694 17.6 2.98027C19.5667 4.36361 21.0333 6.17194 22 8.40527C21.0333 10.6386 19.5667 12.4469 17.6 13.8303C15.6333 15.2136 13.4333 15.9053 11 15.9053ZM10.9958 14.4053C13.0153 14.4053 14.8708 13.8594 16.5625 12.7678C18.2542 11.6761 19.5417 10.2219 20.425 8.40527C19.5417 6.58861 18.2556 5.13444 16.5667 4.04277C14.8779 2.95111 13.0237 2.40527 11.0042 2.40527C8.98474 2.40527 7.12917 2.95111 5.4375 4.04277C3.74583 5.13444 2.45 6.58861 1.55 8.40527C2.45 10.2219 3.74442 11.6761 5.43327 12.7678C7.12214 13.8594 8.97631 14.4053 10.9958 14.4053Z" fill="#1B1B1B"/>
</svg>
